<?xml version="1.0" encoding="utf-8"?>
<!-- Svg Vector Icons : http://www.onlinewebfonts.com/icon -->
<!DOCTYPE svg PUBLIC "-//W3C//DTD SVG 1.1//EN" "http://www.w3.org/Graphics/SVG/1.1/DTD/svg11.dtd">
<svg version="1.1" xmlns="http://www.w3.org/2000/svg" xmlns:xlink="http://www.w3.org/1999/xlink" x="0px" y="0px" viewBox="0 0 1000 1000" enable-background="new 0 0 1000 1000" xml:space="preserve">
<metadata> Svg Vector Icons : http://www.onlinewebfonts.com/icon </metadata>
<g><path d="M720.5,475.3h-441c-14.7,0-24.5,9.9-24.5,24.7c0,14.8,9.8,24.7,24.5,24.7h441c14.7,0,24.5-9.9,24.5-24.7C745,485.2,735.2,475.3,720.5,475.3L720.5,475.3z M892,30.9H108c-53.9,0-98,44.4-98,98.8v592.6c0,54.3,44.1,98.8,98,98.8h490l137.2,138.3c7.4,7.4,14.7,9.9,24.5,9.9c17.2,0,34.3-14.8,34.3-34.6V821h98c53.9,0,98-44.4,98-98.8V129.6C990,75.3,945.9,30.9,892,30.9L892,30.9z M941,722.2c0,27.2-22.1,49.4-49,49.4h-98h-49V821v79L632.3,786.4l-14.7-14.8l-19.6,0H108c-27,0-49-22.2-49-49.4V129.6c0-27.2,22-49.4,49-49.4h784c26.9,0,49,22.2,49,49.4V722.2L941,722.2z M720.5,327.2h-441c-14.7,0-24.5,9.9-24.5,24.7c0,14.8,9.8,24.7,24.5,24.7h441c14.7,0,24.5-9.9,24.5-24.7C745,337,735.2,327.2,720.5,327.2L720.5,327.2z"/></g>
</svg>