<?xml version="1.0" encoding="UTF-8" standalone="no"?>
<svg
   xmlns:dc="http://purl.org/dc/elements/1.1/"
   xmlns:cc="http://creativecommons.org/ns#"
   xmlns:rdf="http://www.w3.org/1999/02/22-rdf-syntax-ns#"
   xmlns:svg="http://www.w3.org/2000/svg"
   xmlns="http://www.w3.org/2000/svg"
   xmlns:sodipodi="http://sodipodi.sourceforge.net/DTD/sodipodi-0.dtd"
   xmlns:inkscape="http://www.inkscape.org/namespaces/inkscape"
   version="1.1"
   x="0px"
   y="0px"
   viewBox="0 0 116 116"
   enable-background="new 0 0 96 96"
   xml:space="preserve"
   id="svg26"
   sodipodi:docname="noun_212472_cc.svg"
   width="116"
   height="116"
   inkscape:version="0.92.2 5c3e80d, 2017-08-06"><metadata
     id="metadata32"><rdf:RDF><cc:Work
         rdf:about=""><dc:format>image/svg+xml</dc:format><dc:type
           rdf:resource="http://purl.org/dc/dcmitype/StillImage" /><dc:title></dc:title></cc:Work></rdf:RDF></metadata><defs
     id="defs30" /><sodipodi:namedview
     pagecolor="#ffffff"
     bordercolor="#666666"
     borderopacity="1"
     objecttolerance="10"
     gridtolerance="10"
     guidetolerance="10"
     inkscape:pageopacity="0"
     inkscape:pageshadow="2"
     inkscape:window-width="640"
     inkscape:window-height="480"
     id="namedview28"
     showgrid="false"
     fit-margin-top="10"
     fit-margin-left="10"
     fit-margin-right="10"
     fit-margin-bottom="10"
     inkscape:zoom="1.9666667"
     inkscape:cx="58"
     inkscape:cy="46"
     inkscape:window-x="0"
     inkscape:window-y="0"
     inkscape:window-maximized="0"
     inkscape:current-layer="svg26" /><g
     id="g4"
     transform="translate(10,10)"><rect
       x="58.104"
       y="72.529999"
       transform="matrix(0.7071,0.7071,-0.7071,0.7071,70.8507,-22.0004)"
       width="7.7600002"
       height="4"
       id="rect2"
       style="fill:#000000" /></g><g
     id="g8"
     transform="translate(10,10)"><polygon
       points="38.939,48.656 57.777,67.495 54.949,70.323 38.939,54.313 3.414,89.838 0.586,87.01 "
       id="polygon6"
       style="fill:#000000" /></g><g
     id="g12"
     transform="translate(10,10)"><polygon
       points="72.394,33.323 95.414,56.344 92.586,59.172 72.394,38.98 49.414,61.959 46.586,59.131 "
       id="polygon10"
       style="fill:#000000" /></g><g
     id="g16"
     transform="translate(10,10)"><path
       d="m 27.091,38.849 c -6.483,0 -11.758,-5.274 -11.758,-11.758 0,-6.483 5.274,-11.757 11.758,-11.757 6.484,0 11.758,5.274 11.758,11.757 0,6.483 -5.275,11.758 -11.758,11.758 z m 0,-19.516 c -4.277,0 -7.758,3.48 -7.758,7.757 0,4.278 3.48,7.758 7.758,7.758 4.278,0 7.758,-3.48 7.758,-7.758 0,-4.277 -3.481,-7.757 -7.758,-7.757 z"
       id="path14"
       inkscape:connector-curvature="0"
       style="fill:#000000" /></g><g
     id="g20"
     transform="translate(10,10)"><path
       d="M 86,96 H 10 C 4.486,96 0,91.514 0,86 V 10 C 0,4.486 4.486,0 10,0 h 76 c 5.514,0 10,4.486 10,10 v 76 c 0,5.514 -4.486,10 -10,10 z M 10,4 C 6.691,4 4,6.691 4,10 v 76 c 0,3.309 2.691,6 6,6 h 76 c 3.309,0 6,-2.691 6,-6 V 10 C 92,6.691 89.309,4 86,4 Z"
       id="path18"
       inkscape:connector-curvature="0"
       style="fill:#000000" /></g></svg>